<svg xmlns="http://www.w3.org/2000/svg" width="500" height="262" viewBox="0 0 500 262">
  <defs>
    <linearGradient id="bg" x1="0" y1="0" x2="1" y2="1">
      <stop offset="0%" stop-color="#0b0f14" />
      <stop offset="100%" stop-color="#141c27" />
    </linearGradient>
    <linearGradient id="accent" x1="0" y1="0" x2="1" y2="1">
      <stop offset="0%" stop-color="#00e054" />
      <stop offset="100%" stop-color="#8bd3ff" />
    </linearGradient>
  </defs>

  <rect width="500" height="262" fill="url(#bg)" />

  <rect x="24" y="20" width="452" height="52" rx="16" fill="#111826" stroke="#223042" />
  <rect x="36" y="30" width="32" height="32" rx="10" fill="url(#accent)" />
  <text x="80" y="52" fill="#edf2f7" font-family="Outfit, Arial, sans-serif" font-size="20" font-weight="700">CineLog</text>
  <text x="160" y="52" fill="#9aa7b7" font-family="Outfit, Arial, sans-serif" font-size="12">catalogo de filmes</text>

  <rect x="24" y="92" width="140" height="150" rx="18" fill="#131a24" stroke="#223042" />
  <rect x="36" y="106" width="116" height="96" rx="12" fill="url(#accent)" />
  <text x="42" y="222" fill="#edf2f7" font-family="Outfit, Arial, sans-serif" font-size="12" font-weight="600">Interstellar</text>
  <text x="42" y="238" fill="#9aa7b7" font-family="Outfit, Arial, sans-serif" font-size="10">Nota: 5</text>

  <rect x="180" y="92" width="140" height="150" rx="18" fill="#131a24" stroke="#223042" />
  <rect x="192" y="106" width="116" height="96" rx="12" fill="#6a11cb" />
  <text x="198" y="222" fill="#edf2f7" font-family="Outfit, Arial, sans-serif" font-size="12" font-weight="600">Parasite</text>
  <text x="198" y="238" fill="#9aa7b7" font-family="Outfit, Arial, sans-serif" font-size="10">Nota: 4</text>

  <rect x="336" y="92" width="140" height="150" rx="18" fill="#131a24" stroke="#223042" />
  <rect x="348" y="106" width="116" height="96" rx="12" fill="#ff7b54" />
  <text x="354" y="222" fill="#edf2f7" font-family="Outfit, Arial, sans-serif" font-size="12" font-weight="600">Dune</text>
  <text x="354" y="238" fill="#9aa7b7" font-family="Outfit, Arial, sans-serif" font-size="10">Nota: 4</text>
</svg>
